PathFileType	4	(X/Y/Z)	/Users/niels/Desktop/University/Third Semester/Perception and Action/Exam/Gymnastics Motion Tracking/Code for Gym Tracking/Analyzed Data/Webcam_Backflip/id2007_1_baseline_Sports2D/id2007_1_baseline_Sports2D_px_person00.trc
DataRate	CameraRate	NumFrames	NumMarkers	Units	OrigDataRate	OrigDataStartFrame	OrigNumFrames
29.776119402985074	29.776119402985074	14	22	m	29.776119402985074	100	134
Frame#	Time	Hip			RHip			RKnee			RAnkle			RBigToe			RSmallToe			RHeel			LHip			LKnee			LAnkle			LBigToe			LSmallToe			LHeel			Neck			Head			Nose			RShoulder			RElbow			RWrist			LShoulder			LElbow			LWrist		
		X1	Y1	Z1	X2	Y2	Z2	X3	Y3	Z3	X4	Y4	Z4	X5	Y5	Z5	X6	Y6	Z6	X7	Y7	Z7	X8	Y8	Z8	X9	Y9	Z9	X10	Y10	Z10	X11	Y11	Z11	X12	Y12	Z12	X13	Y13	Z13	X14	Y14	Z14	X15	Y15	Z15	X16	Y16	Z16	X17	Y17	Z17	X18	Y18	Z18	X19	Y19	Z19	X20	Y20	Z20	X21	Y21	Z21	X22	Y22	Z22
100	3.3583959899749374	0.9741128212488195	-0.7022266447995302	0.0	0.9561047353583189	-0.705240886013247	0.0	0.9766135516945781	-1.0407874080107937	0.0	1.0329281750802564	-1.087028877452313	0.0			0.0	1.625089599609375	-0.343052490234375	0.0			0.0	1.0160065057272751	-0.708968616855915	0.0	0.9959267638789947	-1.03365230144545	0.0	1.03864935563181	-1.0797358099488923	0.0			0.0			0.0			0.0	0.9462605324576475	-0.24666564379127434	0.0	0.9815260614517415	-0.05913044328670536	0.0	1.011912215676209	-0.16350615225964138	0.0	0.9066218662563033	-0.29143342116746507	0.0	1.0962514118580853	-0.36419754027808987	0.0	1.304206120759667	-0.3596933677746636	0.0	0.9762737391430311	-0.30832073026836326	0.0	1.110439958935137	-0.4366723914426273	0.0	1.2549861599972054	-0.3762983680024999	0.0
101	3.391979949874687	0.9634739834587055	-0.7128475117746418	0.0	0.9442883014788983	-0.7162273370348708	0.0	0.9600447731422957	-1.0473555263585526	0.0	1.0327774664022258	-1.0871672249913997	0.0			0.0	1.625089599609375	-0.343052490234375	0.0			0.0	1.0052632442936102	-0.7206352338766704	0.0	0.9827756920719265	-1.0432596371136298	0.0	1.0366599514389843	-1.0799168864924362	0.0			0.0			0.0			0.0	0.9564837851698276	-0.25252834611417263	0.0	0.9979820198892039	-0.06468248113420713	0.0	1.0244858369953778	-0.16884457168961564	0.0	0.9133213084214605	-0.2996284306677725	0.0	1.0907344947799344	-0.4108457596493665	0.0	1.3003041694701276	-0.44524616520436583	0.0	0.9813744588573944	-0.3150764930311786	0.0	1.0994746400698707	-0.46791921250360013	0.0	1.2514294445265997	-0.4473803183666029	0.0
102	3.425563909774436	0.9515161930496379	-0.7217270371603757	0.0	0.9319719871352505	-0.7252086105699782	0.0	0.9444886796851506	-1.0526314792228788	0.0	1.0331357277129256	-1.0871455453834848	0.0			0.0	1.625089599609375	-0.343052490234375	0.0			0.0	0.9921129183147206	-0.7305157264839517	0.0	0.9703609745704301	-1.050925555996154	0.0	1.036256161108809	-1.0799570468577306	0.0			0.0			0.0			0.0	0.9672816374149096	-0.2580254045753137	0.0	1.016105129642275	-0.07038179401525765	0.0	1.0382465135546806	-0.17429390235127812	0.0	0.920865315647677	-0.3064274525590521	0.0	1.0822841640185568	-0.4549709721771318	0.0	1.2872854798553641	-0.5295736377749062	0.0	0.9881832939169076	-0.3222675927677289	0.0	1.0879456932642615	-0.4992868405966866	0.0	1.2447735490373066	-0.5229061517917715	0.0
103	3.4591478696741857	0.9383128684888947	-0.7281017363445081	0.0	0.9190566077735985	-0.7316462954926751	0.0	0.9299035149130316	-1.0561866324665965	0.0	1.0336074454282849	-1.0870636544278487	0.0			0.0	1.625089599609375	-0.343052490234375	0.0			0.0	0.9764321988720178	-0.7378386759217014	0.0	0.9582796583409702	-1.0563465135572	0.0	1.0366158887743637	-1.0799282007399598	0.0			0.0			0.0			0.0	0.9780302637143954	-0.26297512012666074	0.0	1.0360386597009137	-0.07620503557106349	0.0	1.0528284390438458	-0.18005604716967671	0.0	0.9292740056021542	-0.31171989620644747	0.0	1.0704513461712841	-0.49417699155873623	0.0	1.2633767725389229	-0.6081081420427512	0.0	0.9949375655133578	-0.32897108233649514	0.0	1.0743256578749882	-0.527446388597053	0.0	1.2303249698347754	-0.5971326063101644	0.0
104	3.492731829573935	0.9241605959528172	-0.7319125186299585	0.0	0.905680262946455	-0.7356204322220317	0.0	0.9162467258409415	-1.0580490041727308	0.0	1.0339987321214754	-1.0869790060244013	0.0			0.0	1.625089599609375	-0.343052490234375	0.0			0.0	0.9583598792496961	-0.7425112951026775	0.0	0.9464612366454543	-1.059495737663624	0.0	1.0371937520713994	-1.0798786519575356	0.0			0.0			0.0			0.0	0.9883285157395804	-0.2674761634923612	0.0	1.0574460750260584	-0.08240036992364594	0.0	1.0677976086610126	-0.18640377531746277	0.0	0.9384908364873842	-0.31595617744617266	0.0	1.0553676525714328	-0.5266904565626099	0.0	1.228908646149031	-0.676568132733568	0.0	1.0002572620018066	-0.33449106453212224	0.0	1.0577189951996864	-0.5501607139484833	0.0	1.2046364464143284	-0.6634497404087606	0.0
105	3.5263157894736845	0.9096157984262353	-0.7336919272760455	0.0	0.8922793733952213	-0.7377195935418942	0.0	0.9035891645808893	-1.0586238471489926	0.0	1.0342512298058781	-1.086916068401014	0.0			0.0	1.625089599609375	-0.343052490234375	0.0			0.0	0.9386612441121498	-0.7450901726276566	0.0	0.9353656551146294	-1.0605806402328037	0.0	1.0377057320185674	-1.079833926342436	0.0			0.0			0.0			0.0	0.9980976259843904	-0.2718662524557795	0.0	1.0795832866518278	-0.08931610539293858	0.0	1.0827307072168377	-0.1936601526984256	0.0	0.9481487429793788	-0.3197316609353596	0.0	1.037738131903415	-0.5516185817915312	0.0	1.1863996460305266	-0.7321077295062887	0.0	1.0039214056975239	-0.33878761578127947	0.0	1.0386449889335576	-0.5667259347951	0.0	1.1681272906757605	-0.716632379741556	0.0
106	3.5598997493734337	0.8955886484133251	-0.7342119848274049	0.0	0.8793934710472859	-0.7386828725471188	0.0	0.8920547784018988	-1.058471648402364	0.0	1.034378247100279	-1.0868790954017564	0.0			0.0	1.625089599609375	-0.343052490234375	0.0			0.0	0.9193263293759141	-0.7464939891692887	0.0	0.9260520966004626	-1.0600514650291513	0.0	1.038052304009544	-1.0798032594501086	0.0			0.0			0.0			0.0	1.0074739788617044	-0.2765041678118254	0.0	1.1014522812669403	-0.09712036002936485	0.0	1.097102617462318	-0.2019388680652799	0.0	0.9575203730504244	-0.3233951776017719	0.0	1.0186368644514263	-0.5689793447378859	0.0	1.139668078614673	-0.7739462196457099	0.0	1.0070450370194717	-0.3425442808169381	0.0	1.0191735796107577	-0.5778143334798514	0.0	1.125111803794921	-0.754665756282338	0.0
107	3.5934837092731833	0.8831819160596801	-0.7341469803830839	0.0	0.8674022978295075	-0.7390637361845837	0.0	0.8816794624774634	-1.0580650283890605	0.0	1.0344190540948044	-1.0868628513175929	0.0			0.0	1.625089599609375	-0.343052490234375	0.0			0.0	0.9032861553859173	-0.7476170852917708	0.0	0.919928382135529	-1.0585249349515806	0.0	1.0382369191680185	-1.0797866701461256	0.0			0.0			0.0			0.0	1.016529958560994	-0.28149845939409773	0.0	1.121941844698298	-0.10561109783304341	0.0	1.11024501743852	-0.21087418663812496	0.0	0.9657749520047719	-0.32702737719287917	0.0	0.9995033729839563	-0.5797474102789439	0.0	1.0927563167294583	-0.8032921040171247	0.0	1.0113716963968722	-0.3466826024013399	0.0	1.002391825663216	-0.584858521151364	0.0	1.0817355317361501	-0.7789226891869743	0.0
108	3.6270676691729324	0.8732341252467356	-0.7338408866250724	0.0	0.8565357926592236	-0.7390180282570165	0.0	0.8725300479145032	-1.0576339114870992	0.0	1.0344130181283946	-1.0868595932956355	0.0			0.0	1.625089599609375	-0.343052490234375	0.0			0.0	0.8928467553874209	-0.7488753099852745	0.0	0.9177264363517297	-1.0565727171214339	0.0	1.038304577128428	-1.0797803674845081	0.0			0.0			0.0			0.0	1.02508770029561	-0.28661118828970283	0.0	1.1399710645942795	-0.11425059960113937	0.0	1.1214893078803225	-0.21971264680523264	0.0	0.9722818462278493	-0.3305473997166192	0.0	0.981875804843428	-0.5855719030715274	0.0	1.0492085302055179	-0.8223345077147763	0.0	1.017923845950873	-0.3516724844156986	0.0	0.9908037003839021	-0.5893145607131222	0.0	1.0435998537387683	-0.792522081506101	0.0
109	3.660651629072682	0.8660155835877614	-0.7333381873160246	0.0	0.8471319581265971	-0.7384499201929439	0.0	0.8649703437225162	-1.0571870362261695	0.0	1.0343889354012399	-1.08686261899508	0.0			0.0	1.625089599609375	-0.343052490234375	0.0			0.0	0.8883263674177523	-0.7501307484189448	0.0	0.9185276450374337	-1.0546071364990688	0.0	1.038305298368961	-1.0797800107606292	0.0			0.0			0.0			0.0	1.0327220198057856	-0.29137844091149956	0.0	1.1546507450216696	-0.12234504027964788	0.0	1.1303165035834617	-0.2276417270706963	0.0	0.9767538255028295	-0.3337061511467325	0.0	0.9669187063718481	-0.5881606615066522	0.0	1.0117057300944212	-0.8331522841433692	0.0	1.0261672467120604	-0.3572589092842682	0.0	0.9850850978937958	-0.5922590381568107	0.0	1.0144502739044694	-0.7986461308746491	0.0
110	3.694235588972431	0.8613646100984459	-0.7326789313458302	0.0	0.8397065052305369	-0.7374188561133532	0.0	0.8595276788758551	-1.056699102292845	0.0	1.0343635561937625	-1.0868674322121292	0.0			0.0	1.625089599609375	-0.343052490234375	0.0			0.0	0.8882876200638363	-0.7511370342251952	0.0	0.9204590932087673	-1.05293931714387	0.0	1.0382777808586863	-1.0797822038475386	0.0			0.0			0.0			0.0	1.0388871718321409	-0.2953303179322882	0.0	1.165463514576105	-0.12919379780224566	0.0	1.1364567323745183	-0.2340056399861018	0.0	0.9792927421886626	-0.33615959461277045	0.0	0.9552721016232328	-0.5889342063695875	0.0	0.9819331291719267	-0.8377179242852069	0.0	1.0346426543268468	-0.3627204925531526	0.0	0.9846010894041145	-0.5944303829093793	0.0	0.9960467311435289	-0.800046910115133	0.0
111	3.727819548872181	0.8588971542012084	-0.7319835848052615	0.0	0.8346425875929294	-0.7362048434988289	0.0	0.8563953555308487	-1.0562506768837936	0.0	1.0343443551226226	-1.0868716057396237	0.0			0.0	1.625089599609375	-0.343052490234375	0.0			0.0	0.8906531537157586	-0.7517878178517791	0.0	0.9221979990607447	-1.051792958994824	0.0	1.0382458603883657	-1.0797848575868894	0.0			0.0			0.0			0.0	1.043113465458848	-0.2981645616139696	0.0	1.172362527173024	-0.13422531003630092	0.0	1.139990811034695	-0.2384108143870139	0.0	0.980301634022255	-0.33766493045503265	0.0	0.9471295131160882	-0.5890014226830824	0.0	0.9606534972809728	-0.8383353983174386	0.0	1.0419847599040166	-0.3672586821711083	0.0	0.9882995330805686	-0.5963419126963403	0.0	0.9883676970484058	-0.7990833117332301	0.0
112	3.76140350877193	0.8580501205315292	-0.7312786543450599	0.0	0.8318747993723574	-0.7350703753259816	0.0	0.8552264158798649	-1.055920307567282	0.0	1.0343333479969474	-1.0868741465240919	0.0			0.0	1.625089599609375	-0.343052490234375	0.0			0.0	0.8936225975221166	-0.7519992310162166	0.0	0.9233810282859267	-1.0511958379603696	0.0	1.038221261784055	-1.07978698723329	0.0			0.0			0.0			0.0	1.0451652182785134	-0.2997658218771231	0.0	1.1756699815524767	-0.13716106064384329	0.0	1.1413116461519488	-0.2408039808553717	0.0	0.9802150252031494	-0.338145188612423	0.0	0.9422407849171367	-0.5891288582982533	0.0	0.947882718824356	-0.8374396877653367	0.0	1.0471506381892628	-0.37030228149792305	0.0	0.9947616333343748	-0.5982237214492397	0.0	0.9898069158457903	-0.7977031624147527	0.0
113	3.7949874686716796	0.8581988751884744	-0.7305092456464761	0.0	0.8309998351474571	-0.7341742344351521	0.0	0.855461849361699	-1.0556732159583933	0.0	1.0343303004416002	-1.0868748471744532	0.0			0.0	1.625089599609375	-0.343052490234375	0.0			0.0	0.8960023721088617	-0.7516623306981116	0.0	0.9242140794138458	-1.0509960670945426	0.0	1.038208194615531	-1.0797883312666041	0.0			0.0			0.0			0.0	1.0450655938354603	-0.3001436930835028	0.0	1.1758555209700625	-0.1380413901006199	0.0	1.1408721230306216	-0.24138487370842399	0.0	0.9793318795382765	-0.3376587813767271	0.0	0.9400684177337987	-0.5897042033825344	0.0	0.9432527822249949	-0.837048079455123	0.0	1.0495009269914375	-0.3716026193318084	0.0	1.002172011409203	-0.6000173812372867	0.0	0.9977813119488295	-0.7973177772033584	0.0
